<?xml version="1.0" encoding="UTF-8"?>
<!DOCTYPE svg PUBLIC "-//W3C//DTD SVG 1.1//EN" "http://www.w3.org/Graphics/SVG/1.1/DTD/svg11.dtd">
<!-- Creator: CorelDRAW Home & Student X8 -->
<svg xmlns="http://www.w3.org/2000/svg" xml:space="preserve" width="210mm" height="297mm" version="1.1" style="shape-rendering:geometricPrecision; text-rendering:geometricPrecision; image-rendering:optimizeQuality; fill-rule:evenodd; clip-rule:evenodd"
viewBox="0 0 21000 29700"
 xmlns:xlink="http://www.w3.org/1999/xlink">
 <defs>
  <style type="text/css">
   <![CDATA[
    .str1 {stroke:#373435;stroke-width:25}
    .str0 {stroke:#373435;stroke-width:17.64}
    .str2 {stroke:#373435;stroke-width:10}
    .fil0 {fill:none}
    .fil1 {fill:#70C173}
   ]]>
  </style>
 </defs>
 <g id="Layer_x0020_1">
  <metadata id="CorelCorpID_0Corel-Layer"/>
  <g id="_532226240">
   <ellipse class="fil0 str0" cx="-6177" cy="16639" rx="2811" ry="1854"/>
   <path class="fil1 str1" d="M-7450 16261c76,252 -331,402 -37,737 420,477 667,380 1273,594 648,229 1266,-235 1856,-211 81,3 124,-25 64,-102 -180,-180 -341,-488 -347,-494 -588,-611 -560,-1103 -1558,-1097 -997,7 -784,106 -1251,573z"/>
   <path class="fil0 str1" d="M-7450 16261c352,101 674,-50 1286,181 308,117 369,23 719,286 42,32 740,339 934,466 26,18 253,111 238,166"/>
   <path class="fil0 str2" d="M-6982 17371c20,-70 -3,-519 -43,-563 -68,-75 -130,-404 -132,-507 90,-56 772,-444 853,-611"/>
   <path class="fil0 str2" d="M-5755 15730c-20,109 -654,418 -844,597 93,186 -39,341 253,752 27,38 0,387 0,469"/>
   <path class="fil0 str2" d="M-5860 17655c2,-96 48,-244 5,-281 -263,-225 25,-426 -309,-932 286,-197 538,-436 899,-436"/>
   <path class="fil0 str2" d="M-5031 16302c-275,97 -456,16 -661,273 217,464 143,217 201,691 8,68 81,42 81,335"/>
   <path class="fil0 str2" d="M-4812 16591c-129,149 -305,3 -479,214 -22,318 81,194 156,564 0,0 55,140 57,142"/>
   <path class="fil0 str2" d="M-4641 16785c-31,191 -223,5 -333,169 -16,39 102,487 170,482"/>
   <path class="fil0 str2" d="M-4640 17120c69,-16 154,34 219,10l1 1"/>
   <path class="fil0 str2" d="M-4640 17120c-59,34 22,203 28,277"/>
   <path class="fil0 str1" d="M-7450 16261c-123,-27 -337,-90 -488,-5 -90,50 -145,17 -237,43"/>
  </g>
 </g>
</svg>
